<svg width="21" height="20" viewBox="0 0 21 20" fill="none" xmlns="http://www.w3.org/2000/svg">
<path d="M7.66602 1L4.66602 4" stroke="#F2F2F2" stroke-width="1.5" stroke-miterlimit="10" stroke-linecap="round" stroke-linejoin="round"/>
<path d="M13.666 1L16.666 4" stroke="#F2F2F2" stroke-width="1.5" stroke-miterlimit="10" stroke-linecap="round" stroke-linejoin="round"/>
<path d="M1.66602 5.99888C1.66602 4.14992 2.55702 4 3.66402 4H17.668C18.775 4 19.666 4.14992 19.666 5.99888C19.666 8.14767 18.775 7.99775 17.668 7.99775H3.66402C2.55702 7.99775 1.66602 8.14767 1.66602 5.99888Z" stroke="#F2F2F2" stroke-width="1.5"/>
<path d="M8.42578 12V15.55" stroke="#F2F2F2" stroke-width="1.5" stroke-linecap="round"/>
<path d="M13.0254 12V15.55" stroke="#F2F2F2" stroke-width="1.5" stroke-linecap="round"/>
<path d="M2.66602 8L3.99307 15.92C4.29425 17.6983 5.01896 19 7.71072 19H13.386C16.3131 19 16.746 17.7533 17.0848 16.03L18.666 8" stroke="#F2F2F2" stroke-width="1.5" stroke-linecap="round"/>
</svg>
