<svg width="21" height="20" viewBox="0 0 21 20" fill="none" xmlns="http://www.w3.org/2000/svg">
<path d="M5.58398 3C5.58398 4.24264 4.57662 5.25 3.33398 5.25C2.09134 5.25 1.08398 4.24264 1.08398 3C1.08398 1.75736 2.09134 0.75 3.33398 0.75C4.57662 0.75 5.58398 1.75736 5.58398 3Z" stroke="#F2F2F2" stroke-width="1.5" stroke-miterlimit="10" stroke-linecap="round" stroke-linejoin="round"/>
<path d="M5.58398 10C5.58398 11.2426 4.57662 12.25 3.33398 12.25C2.09134 12.25 1.08398 11.2426 1.08398 10C1.08398 8.75736 2.09134 7.75 3.33398 7.75C4.57662 7.75 5.58398 8.75736 5.58398 10Z" stroke="#F2F2F2" stroke-width="1.5" stroke-miterlimit="10" stroke-linecap="round" stroke-linejoin="round"/>
<path d="M5.58398 17C5.58398 18.2426 4.57663 19.25 3.33398 19.25C2.09134 19.25 1.08398 18.2426 1.08398 17C1.08398 15.7574 2.09134 14.75 3.33398 14.75C4.57663 14.75 5.58398 15.7574 5.58398 17Z" stroke="#F2F2F2" stroke-width="1.5" stroke-miterlimit="10" stroke-linecap="round" stroke-linejoin="round"/>
<path d="M9.83398 3H19.334" stroke="#F2F2F2" stroke-width="1.5" stroke-linecap="round"/>
<path d="M9.83398 10H19.334" stroke="#F2F2F2" stroke-width="1.5" stroke-linecap="round"/>
<path d="M9.83398 17H19.334" stroke="#F2F2F2" stroke-width="1.5" stroke-linecap="round"/>
</svg>
