<svg width="20" height="20" viewBox="0 0 20 20" fill="none" xmlns="http://www.w3.org/2000/svg">
<path d="M17.2309 7.25H2.76912C1.9892 7.25 1.52805 7.03113 1.24933 6.72197C0.957947 6.39877 0.75 5.84929 0.75 4.96027V2.97616C0.75 2.08681 0.957967 1.55951 1.24136 1.25492C1.51527 0.960536 1.97609 0.75 2.76909 0.75H17.2309C18.0239 0.75 18.4847 0.960536 18.7586 1.25492C19.042 1.55951 19.25 2.08681 19.25 2.97616V4.96027C19.25 5.8493 19.0421 6.39879 18.7507 6.72198C18.472 7.03113 18.0109 7.25 17.2309 7.25Z" stroke="#FF725E" stroke-width="1.5" stroke-miterlimit="10" stroke-linecap="round" stroke-linejoin="round"/>
<path d="M17.2309 19.25H2.76912C1.9892 19.25 1.52805 19.0311 1.24933 18.722C0.957947 18.3988 0.75 17.8493 0.75 16.9603V14.9762C0.75 14.0868 0.957967 13.5595 1.24136 13.2549C1.51527 12.9605 1.97609 12.75 2.76909 12.75H17.2309C18.0239 12.75 18.4847 12.9605 18.7586 13.2549C19.042 13.5595 19.25 14.0868 19.25 14.9762V16.9603C19.25 17.8493 19.0421 18.3988 18.7507 18.722C18.472 19.0311 18.0109 19.25 17.2309 19.25Z" stroke="#FF725E" stroke-width="1.5" stroke-miterlimit="10" stroke-linecap="round" stroke-linejoin="round"/>
</svg>
