<svg width="21" height="20" viewBox="0 0 21 20" fill="none" xmlns="http://www.w3.org/2000/svg">
<path d="M17.908 3.58055H17.508L14.128 0.200547C13.858 -0.0694531 13.418 -0.0694531 13.138 0.200547C12.868 0.470547 12.868 0.910547 13.138 1.19055L15.528 3.58055H5.80797L8.19797 1.19055C8.46797 0.920547 8.46797 0.480547 8.19797 0.200547C7.92797 -0.0694531 7.48797 -0.0694531 7.20797 0.200547L3.83797 3.58055H3.43797C2.53797 3.58055 0.667969 3.58055 0.667969 6.14055C0.667969 7.11055 0.867969 7.75055 1.28797 8.17055C1.52797 8.42055 1.81797 8.55055 2.12797 8.62055C2.41797 8.69055 2.72797 8.70055 3.02797 8.70055H18.308C18.618 8.70055 18.908 8.68055 19.188 8.62055C20.028 8.42055 20.668 7.82055 20.668 6.14055C20.668 3.58055 18.798 3.58055 17.908 3.58055Z" fill="white"/>
<path d="M17.7186 10H3.53861C2.91861 10 2.44861 10.55 2.54861 11.16L3.38861 16.3C3.66861 18.02 4.41861 20 7.74861 20H13.3586C16.7286 20 17.3286 18.31 17.6886 16.42L18.6986 11.19C18.8186 10.57 18.3486 10 17.7186 10ZM9.27861 16.45C9.27861 16.84 8.96861 17.15 8.58861 17.15C8.19861 17.15 7.88861 16.84 7.88861 16.45V13.15C7.88861 12.77 8.19861 12.45 8.58861 12.45C8.96861 12.45 9.27861 12.77 9.27861 13.15V16.45ZM13.5586 16.45C13.5586 16.84 13.2486 17.15 12.8586 17.15C12.4786 17.15 12.1586 16.84 12.1586 16.45V13.15C12.1586 12.77 12.4786 12.45 12.8586 12.45C13.2486 12.45 13.5586 12.77 13.5586 13.15V16.45Z" fill="white"/>
</svg>
