<svg width="21" height="20" viewBox="0 0 21 20" fill="none" xmlns="http://www.w3.org/2000/svg">
<path d="M3.33203 6C4.98889 6 6.33203 4.65685 6.33203 3C6.33203 1.34315 4.98889 0 3.33203 0C1.67518 0 0.332031 1.34315 0.332031 3C0.332031 4.65685 1.67518 6 3.33203 6Z" fill="white"/>
<path d="M3.33203 13C4.98889 13 6.33203 11.6569 6.33203 10C6.33203 8.34315 4.98889 7 3.33203 7C1.67518 7 0.332031 8.34315 0.332031 10C0.332031 11.6569 1.67518 13 3.33203 13Z" fill="white"/>
<path d="M3.33203 20C4.98889 20 6.33203 18.6569 6.33203 17C6.33203 15.3431 4.98889 14 3.33203 14C1.67518 14 0.332031 15.3431 0.332031 17C0.332031 18.6569 1.67518 20 3.33203 20Z" fill="white"/>
<path d="M9.83203 3H19.332" stroke="white" stroke-width="1.5" stroke-linecap="round"/>
<path d="M9.83203 10H19.332" stroke="white" stroke-width="1.5" stroke-linecap="round"/>
<path d="M9.83203 17H19.332" stroke="white" stroke-width="1.5" stroke-linecap="round"/>
</svg>
